<svg xmlns="http://www.w3.org/2000/svg" viewBox="0 0 215 36"><path d="M198.853 23.349c4.186 0 6.965-2.1 6.965-5.816v-.066c0-3.68-2.779-5.816-6.965-5.816h-2.435a.4.4 0 00-.417.38v10.938a.4.4 0 00.417.38zM189 7a1.05 1.05 0 011.1-1h8.648C207.767 6 213 10.732 213 17.369v.066C213 24.072 207.694 29 198.6 29h-8.5a1.05 1.05 0 01-1.1-1zM163.058 6h4.723a1.077 1.077 0 01.834.386l9.328 11.314a.213.213 0 00.377-.122V7a1.029 1.029 0 011.057-1h4.565A1.029 1.029 0 01185 7v21a1.029 1.029 0 01-1.058 1H179.6a1.08 1.08 0 01-.835-.385l-9.707-11.775a.213.213 0 00-.377.122V28a1.029 1.029 0 01-1.058 1h-4.565A1.029 1.029 0 01162 28V7a1.029 1.029 0 011.058-1M152.09 6h4.82A1.047 1.047 0 01158 7v21a1.047 1.047 0 01-1.09 1h-4.82a1.047 1.047 0 01-1.09-1V7a1.047 1.047 0 011.09-1M112.058 6.065h4.881a1.05 1.05 0 011.012.7l3.656 11.352a.406.406 0 00.756.009l4.062-11.452a1.055 1.055 0 011-.677h4.283a1.053 1.053 0 011 .677l4.062 11.452a.4.4 0 00.755-.009l3.655-11.352a1.053 1.053 0 011.013-.7h4.743a1 1 0 011 1.3l-7.438 20.959a1.053 1.053 0 01-1 .677h-4.366a1.055 1.055 0 01-1-.662l-4.282-11.446a.405.405 0 00-.747 0l-4.243 11.443a1.055 1.055 0 01-1 .664h-4.36a1.053 1.053 0 01-1-.677l-7.445-20.959a1 1 0 011-1.3M89.069 6h17.684a1.036 1.036 0 011.07 1v3.423a1.036 1.036 0 01-1.07 1H95.175a.4.4 0 00-.415.387v2.709a.4.4 0 00.415.387h10.345a1.036 1.036 0 011.071 1v3.03a1.036 1.036 0 01-1.071 1H95.175a.4.4 0 00-.415.387v2.874a.4.4 0 00.415.387h11.754a1.037 1.037 0 011.071 1V28a1.037 1.037 0 01-1.071 1h-17.86A1.036 1.036 0 0188 28V7a1.036 1.036 0 011.069-1M77.745 16.607a.4.4 0 01-.606.324L71.665 14a.362.362 0 010-.649l5.474-2.931a.4.4 0 01.606.324zM80.005 14a.362.362 0 010-.649l5-2.674V7a1.04 1.04 0 00-1.077-1H73.273c-3.79 0-6.411.92-8.077 2.5A6.859 6.859 0 0063 13.853v.066a7.2 7.2 0 004.626 6.864.4.4 0 01.175.608l-4.462 6.047A1 1 0 0064.227 29h5.317a1.1 1.1 0 00.9-.445L74.8 22.48a1.1 1.1 0 01.9-.446h1.886a.529.529 0 01.548.509V28a1.04 1.04 0 001.066 1h4.719A1.04 1.04 0 0085 28V16.674z" fill-rule="evenodd"/><path d="M50.2 6.467A6.176 6.176 0 0045.759 2.2C41.84 1.187 26.125 1.187 26.125 1.187s-15.713 0-19.632 1.013A6.177 6.177 0 002.05 6.467C1 10.234 1 18.093 1 18.093s0 7.86 1.05 11.627a6.172 6.172 0 004.443 4.27C10.412 35 26.125 35 26.125 35s15.715 0 19.634-1.01a6.171 6.171 0 004.441-4.27c1.051-3.767 1.051-11.627 1.051-11.627s0-7.859-1.051-11.626" fill="red" fill-rule="evenodd"/><path fill="#fff" fill-rule="evenodd" d="M21 26l13-7.5L21 11v15z"/></svg>
