<svg xmlns="http://www.w3.org/2000/svg" viewBox="0 0 80 80"><path d="M71.907 25.137l-4.129-1.192-1.54 4.034 1.214.463.815-2.133a31.737 31.737 0 011.7 4.2 31.411 31.411 0 011.516 10.979l1.3.052a32.707 32.707 0 00-1.577-11.432 33.2 33.2 0 00-1.749-4.325l2.088.6zM25.66 67.135a1.285 1.285 0 01-.874.65 1.655 1.655 0 01-1.168-.276l-1.271-.769 1.442-2.385 1.306.789a1.618 1.618 0 01.775.909 1.37 1.37 0 01-.21 1.082m0-3.012l-2.5-1.513-4.3 7.118 1.237.747 1.656-2.737 1.378.834-.228 3.6 1.326.8.038-.063.194-3.931a2.567 2.567 0 001.408-.16 2.354 2.354 0 001.069-.988 2.288 2.288 0 00.3-2.005 3.4 3.4 0 00-1.567-1.7m4.5 11.017l5.322 1.123.238-1.129-3.908-.825.529-2.5 3.342.706.237-1.119-3.343-.7.474-2.247 3.869.816.24-1.14L31.878 67zm18.285-1.753l-2.691-5.868-1.191.222-.417 6.436-2.414-5.908-1.41.262 3.411 7.826L45.1 76.1l.476-6.267 2.669 5.68 1.36-.253.363-8.529-1.411.269zm4.69-8.532l4.076 7.251 1.255-.706-4.076-7.251zm8.482-6.844l4.308 4.067-6.861-1.362-.992 1.05 6.048 5.711.992-1.051-4.291-4.051 6.837 1.355.992-1.051-6.061-5.712zM72.307 54l-.358.872L66.4 52.6l.384-.935a2.086 2.086 0 011.309-1.31 3.182 3.182 0 012.136.24l.428.176a3.1 3.1 0 011.655 1.348 2.169 2.169 0 010 1.885M71.17 49.41l-.386-.158a4.431 4.431 0 00-2.091-.352 3.356 3.356 0 00-1.792.7 3.865 3.865 0 00-1.2 1.624l-.932 2.274 7.7 3.155.909-2.214a4.042 4.042 0 00.308-2.032 3.312 3.312 0 00-.77-1.767 4.406 4.406 0 00-1.746-1.23M14.768 56.08l-.481 2.255a31.7 31.7 0 01-2.334-3.9 31.377 31.377 0 01-3.187-10.61l-1.292.148a32.69 32.69 0 003.318 11.053 33.23 33.23 0 002.4 4.011l-2.176-.277-.164 1.29 4.284.545.906-4.244zM4.736 31.468l3.51 2.623-4.233 1.136-.3 1.576L9.4 35.052l3.007.578.273-1.425-3.007-.579L5.037 29.9zm4.95-9.16a1.71 1.71 0 011.387-.9 3.64 3.64 0 012.092.624l.374.221a3.69 3.69 0 011.58 1.529 1.7 1.7 0 01-.119 1.64 1.721 1.721 0 01-1.4.9 3.614 3.614 0 01-2.1-.615l-.414-.243a3.568 3.568 0 01-1.515-1.519 1.7 1.7 0 01.11-1.635m.722 4.429l.4.237a4.95 4.95 0 002.039.693 3.246 3.246 0 001.834-.34 3.545 3.545 0 001.831-3.112 3.2 3.2 0 00-.608-1.76A5.114 5.114 0 0014.272 21l-.4-.235a5.051 5.051 0 00-2.059-.708 3.194 3.194 0 00-1.827.334A3.339 3.339 0 008.652 21.7a3.3 3.3 0 00-.488 1.8 3.238 3.238 0 00.611 1.772 5.066 5.066 0 001.633 1.462m13.528-10.369a2.7 2.7 0 00-.646-2.17l-3.466-4.346-1.126.9 3.442 4.314a1.516 1.516 0 01-.207 2.416 1.643 1.643 0 01-1.248.432 1.765 1.765 0 01-1.125-.732l-3.47-4.35-1.126.9 3.464 4.342A2.716 2.716 0 0020.4 19.2a3.246 3.246 0 002.248-.819 3.215 3.215 0 001.284-2.014M28.193 7.1l2.321 6.766 1.356-.466-2.321-6.766L32 5.792l-.378-1.1-6.24 2.139.378 1.1zm12.62 5.223a3.222 3.222 0 002.281-.709A2.7 2.7 0 0044 9.539l.159-5.557-1.439-.041-.158 5.517q-.05 1.758-1.718 1.711a1.651 1.651 0 01-1.232-.476 1.767 1.767 0 01-.386-1.285l.159-5.563-1.437-.045-.159 5.551a2.711 2.711 0 00.779 2.14 3.244 3.244 0 002.245.827m9.8-2.077l1.6.649a1.187 1.187 0 01.73 1.726 1.184 1.184 0 01-.707.725 1.557 1.557 0 01-1.111-.088l-1.488-.6zm1.28-3.141l1.3.528a1.776 1.776 0 01.91.666 1.059 1.059 0 01-.01.958 1.043 1.043 0 01-.677.659 1.64 1.64 0 01-1.091-.113l-1.31-.538zm1.012 7.452a2.216 2.216 0 001.373-1.386 2.006 2.006 0 00.115-1.263 1.842 1.842 0 00-.707-1.03 1.986 1.986 0 001.1-.317 1.8 1.8 0 00.672-.837 2 2 0 00-.049-1.839 3.484 3.484 0 00-1.778-1.332l-2.639-1.076-3.127 7.708 2.811 1.14a3.27 3.27 0 002.229.227zm8.026.315l1.517-1.725 2.969 2.61.769-.875-4.055-3.565-5.492 6.248 4.085 3.591.762-.867-3-2.636 1.69-1.923 2.566 2.256.754-.859z" fill="#231f20"/></svg>
