<svg width="24" height="24" viewBox="0 0 24 24" fill="none" xmlns="http://www.w3.org/2000/svg">
<path d="M0 12C0 5.37258 5.37258 0 12 0C18.6274 0 24 5.37258 24 12C24 18.6274 18.6274 24 12 24C5.37258 24 0 18.6274 0 12Z" fill="#FF7800"/>
<path d="M19.3846 13.4557L19.4006 13.4555L19.4006 10.8291C16.7311 10.8291 14.4915 7.77289 14.4915 5.57645L11.9302 5.57645L11.9312 5.70752C11.9609 7.69363 12.6639 9.47622 13.8061 10.8294L4.88667 10.8291L4.88667 13.4557L13.8059 13.4554C12.6388 14.8383 11.9302 16.6695 11.9302 18.7081L14.4915 18.7081C14.4915 16.5336 16.6865 13.5165 19.3207 13.4564L19.3846 13.4557Z" fill="white"/>
</svg>
