<svg width="113" height="24" viewBox="0 0 113 24" fill="none" xmlns="http://www.w3.org/2000/svg">
<path d="M7.30245 0.405273H0V23.5949H7.30245V0.405273Z" fill="white"/>
<path d="M26.8281 24C40.148 24 42.4672 17.5169 42.4672 14.587V14.2442H34.726C34.538 14.774 33.7858 18.3584 26.2326 18.3584C19.4316 18.3584 17.5825 14.7429 17.5825 12V11.626C17.5825 8.72727 19.1809 5.61039 26.1699 5.61039C33.5664 5.61039 34.5066 8.85195 34.6947 9.47533H42.4359V9.13247C42.4359 6.42078 40.3361 0 26.8281 0H25.5431C11.7531 0 9.9353 7.26234 9.9353 11.4701V12.374C9.9353 16.4883 12.0351 24 25.5431 24H26.8281Z" fill="white"/>
<path d="M45.0056 23.5949H65.1579C72.7111 23.5949 74.8109 20.5715 74.8109 16.9248V16.4884C74.8109 12.4053 71.3947 11.065 69.7963 10.6598C70.9246 10.317 73.4946 9.16372 73.4946 6.14034V5.70398C73.4946 2.96112 71.6455 0.405273 64.9698 0.405273H45.0056V23.5949ZM63.7162 5.29878C65.7534 5.29878 66.2548 6.17151 66.2548 7.13774V7.20008C66.2548 8.13514 65.7534 9.07021 63.7162 9.07021H52.3081V5.29878H63.7162ZM64.343 13.9949C66.7563 13.9949 67.2264 15.1481 67.2264 16.1455V16.2702C67.2264 17.2053 66.7563 18.5455 64.343 18.5455H52.3081V13.9949H64.343Z" fill="white"/>
<path fill-rule="evenodd" clip-rule="evenodd" d="M81.6589 9.56891L81.6883 9.56852L81.8057 9.56729C86.6406 9.46025 90.6695 4.08921 90.6695 0.218262H95.3706C95.3706 3.84735 94.0701 7.1073 91.9278 9.56901L108.299 9.56852V0.218262L113 0.218262V14.2442H108.299V14.2438L91.9274 14.2437C94.0239 16.6526 95.3144 19.8259 95.3688 23.3616L95.3706 23.5949H90.6695C90.6695 19.6848 86.5588 14.2442 81.6589 14.2442V9.56891Z" fill="#FF7800"/>
</svg>
